# xmcd
#
# Track frame offsets:
#	150
#	20232
#	37750
#	57520
#	74932
#	96822
#	116352
#	137807
#	159505
#	187927
#
# Disc length: 2824 seconds
#
# Revision: 3276833
# Processed by: cddbd v1.5.2PL0 Copyright (c) Steve Scherf et al.
# Submitted via: EZCDAudioConverter 8.0.2.1
#
DISCID=8b0b060a
DTITLE=Various Artist - Lá Thư Đô Thị
DYEAR=1989
DGENRE=World Pop
TTITLE0=Tuấn Vũ - Mất nhau rồi
TTITLE1=Giao Linh - Gió về miền xuôi
TTITLE2=Thiên Trang - Khuya nay anh đi rồi
TTITLE3=Thanh Tuyền - Thương về vùng hỏa tuyến
TTITLE4=Tuấn Vũ - Đêm trên đỉnh sầu
TTITLE5=Thanh Tuyền - Gió lạnh đêm hà
TTITLE6=Tuấn Vũ - Tình hậu phương
TTITLE7=Giao Linh - Lá Thư Đô Thị
TTITLE8=Huong Lan, Thanh Phong - Đường dài miệt mài
TTITLE9=Thiên Trang - Thương về quán trọ
EXTD=
EXTT0=
EXTT1=
EXTT2=
EXTT3=
EXTT4=
EXTT5=
EXTT6=
EXTT7=
EXTT8=
EXTT9=
PLAYORDER=
